<svg xmlns="http://www.w3.org/2000/svg" viewBox="0 0 62.3 8.52"><title>logo-min-01</title><g id="Calque_2" data-name="Calque 2"><g id="Calque_1-2" data-name="Calque 1"><path d="M0,.06H3.27A4.19,4.19,0,0,1,7.74,4.23v0a4.21,4.21,0,0,1-4.47,4.2H0ZM3.27,6.79A2.4,2.4,0,0,0,5.81,4.28v0A2.41,2.41,0,0,0,3.27,1.73H1.85V6.79Z"/><path d="M8.64,6.54h1.94V8.46H8.64Z"/><path d="M10.49.06h2l1.74,5.69L16.09,0h1.58l1.89,5.71L21.29.06h1.94L20.36,8.52H18.75L16.86,3,15,8.52H13.35Z"/><path d="M26.4,0h1.7l3.6,8.46H29.77L29,6.57H25.45l-.77,1.89H22.8Zm1.94,4.94L27.23,2.22,26.11,4.94Z"/><path d="M33,.06h1.85V6.78H39V8.46H33Z"/><path d="M41.18,1.76H38.63V.06h6.95v1.7H43v6.7H41.18Z"/><path d="M47,.06h6.34V1.7h-4.5V3.41h4V5.05h-4V6.81H53.4V8.46H47Z"/><path d="M55,.06h3.84a3.35,3.35,0,0,1,2.45.85,2.64,2.64,0,0,1,.72,1.92v0a2.61,2.61,0,0,1-1.8,2.61l2,3H60.14l-1.8-2.69H56.89V8.46H55Zm3.72,4.08c.9,0,1.42-.48,1.42-1.19v0c0-.79-.55-1.2-1.45-1.2H56.89V4.14Z"/></g></g></svg>